<svg width="642" height="561" viewBox="0 0 642 561" fill="none" xmlns="http://www.w3.org/2000/svg">
<g clip-path="url(#clip0_0_1)">
<path d="M638.456 533.779L335.241 8.5473C332.143 3.20524 326.48 0 320.39 0C314.3 0 308.637 3.31208 305.539 8.5473L2.3238 533.779C-0.7746 539.121 -0.7746 545.638 2.3238 550.873C5.42219 556.215 11.0848 559.421 17.1747 559.421H623.605C629.695 559.421 635.358 556.109 638.456 550.873C641.555 545.531 641.555 539.014 638.456 533.779Z" fill="#FFFF00" stroke="#A9A9A9"/>
<path d="M617.318 523.22L333.518 31.6205C330.618 26.6205 325.318 23.6205 319.618 23.6205C313.918 23.6205 308.618 26.7205 305.718 31.6205L21.9179 523.22C19.0179 528.22 19.0179 534.32 21.9179 539.22C24.8179 544.22 30.1179 547.22 35.8179 547.22H603.418C609.118 547.22 614.418 544.12 617.318 539.22C620.218 534.22 620.218 528.12 617.318 523.22Z" fill="black"/>
<path d="M63.6179 515.12L319.618 71.8205L575.618 515.12H63.6179Z" fill="#F7F619"/>
<path d="M316.906 412.963C340.877 412.963 360.309 393.53 360.309 369.559C360.309 345.588 340.877 326.156 316.906 326.156C292.935 326.156 273.503 345.588 273.503 369.559C273.503 393.53 292.935 412.963 316.906 412.963Z" fill="black"/>
<path d="M316.906 402.992C335.37 402.992 350.338 388.023 350.338 369.559C350.338 351.095 335.37 336.127 316.906 336.127C298.442 336.127 283.474 351.095 283.474 369.559C283.474 388.023 298.442 402.992 316.906 402.992Z" fill="black"/>
<path d="M346.58 367.279H497.325" stroke="black" stroke-width="11.6"/>
<path fill-rule="evenodd" clip-rule="evenodd" d="M319.342 368.771C320.368 335.003 323.446 233.698 323.446 233.698H311.133C311.133 233.698 313.931 335.003 314.864 368.771" fill="black"/>
<path d="M319.342 368.771C320.368 335.003 323.446 233.698 323.446 233.698H311.133C311.133 233.698 313.931 335.003 314.864 368.771" stroke="black" stroke-miterlimit="13.8" stroke-linecap="round"/>
<path fill-rule="evenodd" clip-rule="evenodd" d="M323.446 366.346C289.678 365.32 188.373 362.242 188.373 362.242V374.555C188.373 374.555 289.678 371.757 323.446 370.824" fill="black"/>
<path d="M323.446 366.346C289.678 365.32 188.373 362.242 188.373 362.242V374.555C188.373 374.555 289.678 371.757 323.446 370.824" stroke="black" stroke-miterlimit="13.8" stroke-linecap="round"/>
<path fill-rule="evenodd" clip-rule="evenodd" d="M319.036 368.501C320.062 402.269 323.141 503.574 323.141 503.574H310.827C310.827 503.574 313.626 402.269 314.559 368.501" fill="black"/>
<path d="M319.036 368.501C320.062 402.269 323.141 503.574 323.141 503.574H310.827C310.827 503.574 313.626 402.269 314.559 368.501" stroke="black" stroke-miterlimit="13.8" stroke-linecap="round"/>
<path fill-rule="evenodd" clip-rule="evenodd" d="M322.031 369.228C306.009 339.485 257.946 250.254 257.946 250.254L247.287 256.42C247.287 256.42 300.438 342.708 318.155 371.47" fill="black"/>
<path d="M322.031 369.228C306.009 339.485 257.946 250.254 257.946 250.254L247.287 256.42C247.287 256.42 300.438 342.708 318.155 371.47" stroke="black" stroke-miterlimit="13.8" stroke-linecap="round"/>
<path fill-rule="evenodd" clip-rule="evenodd" d="M323.556 369.999C295.133 351.736 209.867 296.948 209.867 296.948L203.528 307.504C203.528 307.504 291.82 357.254 321.251 373.838" fill="black"/>
<path d="M323.556 369.999C295.133 351.736 209.867 296.948 209.867 296.948L203.528 307.504C203.528 307.504 291.82 357.254 321.251 373.838" stroke="black" stroke-miterlimit="13.8" stroke-linecap="round"/>
<path fill-rule="evenodd" clip-rule="evenodd" d="M317.266 371.697C334.699 342.759 387.001 255.944 387.001 255.944L376.266 249.914C376.266 249.914 329.088 339.606 313.362 369.504" fill="black"/>
<path d="M317.266 371.697C334.699 342.759 387.001 255.944 387.001 255.944L376.266 249.914C376.266 249.914 329.088 339.606 313.362 369.504" stroke="black" stroke-miterlimit="13.8" stroke-linecap="round"/>
<path fill-rule="evenodd" clip-rule="evenodd" d="M314.131 372.11C343.66 355.698 432.249 306.462 432.249 306.462L425.944 295.886C425.944 295.886 340.364 350.17 311.838 368.264" fill="black"/>
<path d="M314.131 372.11C343.66 355.698 432.249 306.462 432.249 306.462L425.944 295.886C425.944 295.886 340.364 350.17 311.838 368.264" stroke="black" stroke-miterlimit="13.8" stroke-linecap="round"/>
<path fill-rule="evenodd" clip-rule="evenodd" d="M314.24 368.309C329.887 398.251 376.828 488.077 376.828 488.077L387.563 482.045C387.563 482.045 335.499 395.098 318.144 366.116" fill="black"/>
<path d="M314.24 368.309C329.887 398.251 376.828 488.077 376.828 488.077L387.563 482.045C387.563 482.045 335.499 395.098 318.144 366.116" stroke="black" stroke-miterlimit="13.8" stroke-linecap="round"/>
<path fill-rule="evenodd" clip-rule="evenodd" d="M312.533 368.029C341.026 386.181 426.505 440.638 426.505 440.638L432.803 430.057C432.803 430.057 344.318 380.65 314.823 364.181" fill="black"/>
<path d="M312.533 368.029C341.026 386.181 426.505 440.638 426.505 440.638L432.803 430.057C432.803 430.057 344.318 380.65 314.823 364.181" stroke="black" stroke-miterlimit="13.8" stroke-linecap="round"/>
<path fill-rule="evenodd" clip-rule="evenodd" d="M321.409 363.726C291.807 380.007 203.001 428.85 203.001 428.85L209.26 439.454C209.26 439.454 295.078 385.55 323.685 367.582" fill="black"/>
<path d="M321.409 363.726C291.807 380.007 203.001 428.85 203.001 428.85L209.26 439.454C209.26 439.454 295.078 385.55 323.685 367.582" stroke="black" stroke-miterlimit="13.8" stroke-linecap="round"/>
<path fill-rule="evenodd" clip-rule="evenodd" d="M318.104 366.49C300.484 395.315 247.623 481.79 247.623 481.79L258.32 487.89C258.32 487.89 306.075 398.504 321.994 368.708" fill="black"/>
<path d="M318.104 366.49C300.484 395.315 247.623 481.79 247.623 481.79L258.32 487.89C258.32 487.89 306.075 398.504 321.994 368.708" stroke="black" stroke-miterlimit="13.8" stroke-linecap="round"/>
<path fill-rule="evenodd" clip-rule="evenodd" d="M316.573 361.769C310.029 385.101 290.396 455.095 290.396 455.095L298.969 457.221C298.969 457.221 314.51 386.212 319.69 362.542" fill="black"/>
<path d="M316.573 361.769C310.029 385.101 290.396 455.095 290.396 455.095L298.969 457.221C298.969 457.221 314.51 386.212 319.69 362.542" stroke="black" stroke-width="0.717261" stroke-miterlimit="13.8" stroke-linecap="round"/>
<path fill-rule="evenodd" clip-rule="evenodd" d="M321.907 361.447C304.62 378.427 252.759 429.37 252.759 429.37L259.136 435.479C259.136 435.479 307.953 381.621 324.226 363.668" fill="black"/>
<path d="M321.907 361.447C304.62 378.427 252.759 429.37 252.759 429.37L259.136 435.479C259.136 435.479 307.953 381.621 324.226 363.668" stroke="black" stroke-width="0.717261" stroke-miterlimit="13.8" stroke-linecap="round"/>
<path fill-rule="evenodd" clip-rule="evenodd" d="M327.446 366.317C303.757 371.416 232.689 386.713 232.689 386.713L234.809 395.286C234.809 395.286 304.865 375.898 328.217 369.435" fill="black"/>
<path d="M327.446 366.317C303.757 371.416 232.689 386.713 232.689 386.713L234.809 395.286C234.809 395.286 304.865 375.898 328.217 369.435" stroke="black" stroke-width="0.717261" stroke-miterlimit="13.8" stroke-linecap="round"/>
<path fill-rule="evenodd" clip-rule="evenodd" d="M328.013 371.938C305.08 364.11 236.282 340.626 236.282 340.626L233.684 349.067C233.684 349.067 303.722 368.523 327.068 375.008" fill="black"/>
<path d="M328.013 371.938C305.08 364.11 236.282 340.626 236.282 340.626L233.684 349.067C233.684 349.067 303.722 368.523 327.068 375.008" stroke="black" stroke-width="0.717261" stroke-miterlimit="13.8" stroke-linecap="round"/>
<path fill-rule="evenodd" clip-rule="evenodd" d="M324.515 373.668C308.272 355.687 259.542 301.742 259.542 301.742L253.171 307.859C253.171 307.859 304.942 358.884 322.199 375.892" fill="black"/>
<path d="M324.515 373.668C308.272 355.687 259.542 301.742 259.542 301.742L253.171 307.859C253.171 307.859 304.942 358.884 322.199 375.892" stroke="black" stroke-width="0.717261" stroke-miterlimit="13.8" stroke-linecap="round"/>
<path fill-rule="evenodd" clip-rule="evenodd" d="M320.472 375.827C315.159 352.185 299.218 281.258 299.218 281.258L290.664 283.456C290.664 283.456 310.687 353.333 317.362 376.626" fill="black"/>
<path d="M320.472 375.827C315.159 352.185 299.218 281.258 299.218 281.258L290.664 283.456C290.664 283.456 310.687 353.333 317.362 376.626" stroke="black" stroke-width="0.717261" stroke-miterlimit="13.8" stroke-linecap="round"/>
<path fill-rule="evenodd" clip-rule="evenodd" d="M317.324 376.417C323.846 353.08 343.412 283.066 343.412 283.066L334.838 280.949C334.838 280.949 319.364 351.973 314.206 375.647" fill="black"/>
<path d="M317.324 376.417C323.846 353.08 343.412 283.066 343.412 283.066L334.838 280.949C334.838 280.949 319.364 351.973 314.206 375.647" stroke="black" stroke-width="0.717261" stroke-miterlimit="13.8" stroke-linecap="round"/>
<path fill-rule="evenodd" clip-rule="evenodd" d="M313.334 375.806C330.381 358.584 381.523 306.92 381.523 306.92L375.061 300.901C375.061 300.901 327.003 355.438 310.984 373.617" fill="black"/>
<path d="M313.334 375.806C330.381 358.584 381.523 306.92 381.523 306.92L375.061 300.901C375.061 300.901 327.003 355.438 310.984 373.617" stroke="black" stroke-width="0.717261" stroke-miterlimit="13.8" stroke-linecap="round"/>
<path fill-rule="evenodd" clip-rule="evenodd" d="M308.06 372.959C331.527 366.92 401.928 348.802 401.928 348.802L399.469 340.319C399.469 340.319 330.241 362.486 307.165 369.875" fill="black"/>
<path d="M308.06 372.959C331.527 366.92 401.928 348.802 401.928 348.802L399.469 340.319C399.469 340.319 330.241 362.486 307.165 369.875" stroke="black" stroke-width="0.717261" stroke-miterlimit="13.8" stroke-linecap="round"/>
<path fill-rule="evenodd" clip-rule="evenodd" d="M308.795 368.006C332.007 374.962 401.643 395.83 401.643 395.83L403.92 387.297C403.92 387.297 333.197 370.501 309.623 364.903" fill="black"/>
<path d="M308.795 368.006C332.007 374.962 401.643 395.83 401.643 395.83L403.92 387.297C403.92 387.297 333.197 370.501 309.623 364.903" stroke="black" stroke-width="0.717261" stroke-miterlimit="13.8" stroke-linecap="round"/>
<path fill-rule="evenodd" clip-rule="evenodd" d="M310.862 365.406C327.319 383.193 376.69 436.552 376.69 436.552L382.987 430.36C382.987 430.36 330.611 379.956 313.152 363.155" fill="black"/>
<path d="M310.862 365.406C327.319 383.193 376.69 436.552 376.69 436.552L382.987 430.36C382.987 430.36 330.611 379.956 313.152 363.155" stroke="black" stroke-width="0.717261" stroke-miterlimit="13.8" stroke-linecap="round"/>
<path fill-rule="evenodd" clip-rule="evenodd" d="M314.852 362.736C320.102 386.393 335.85 457.362 335.85 457.362L344.41 455.188C344.41 455.188 324.576 385.256 317.965 361.946" fill="black"/>
<path d="M314.852 362.736C320.102 386.393 335.85 457.362 335.85 457.362L344.41 455.188C344.41 455.188 324.576 385.256 317.965 361.946" stroke="black" stroke-width="0.717261" stroke-miterlimit="13.8" stroke-linecap="round"/>
</g>
<defs>
<clipPath id="clip0_0_1">
<rect width="641.78" height="560.421" fill="white"/>
</clipPath>
</defs>
</svg>
