<?xml version='1.0' encoding='UTF-8' standalone='no'?>
<svg xmlns="http://www.w3.org/2000/svg" id="svg2" width="15.000222mm" viewBox="0 0 53.150394 93.662428" height="26.433619mm" version="1.1"  gorn="0">
    <desc id="desc3" >
        <referenceFile >keyes_ky-008_laser_transmitter_breakout_3_300mil_breadboard.svg</referenceFile>
    </desc>
    <defs id="defs4" />
    <metadata id="metadata7" >
        <rdf:RDF xmlns:rdf="http://www.w3.org/1999/02/22-rdf-syntax-ns#">
            <cc:Work xmlns:rdf="http://www.w3.org/1999/02/22-rdf-syntax-ns#" xmlns:cc="http://creativecommons.org/ns#" rdf:about="">
                <dc:format xmlns:dc="http://purl.org/dc/elements/1.1/">image/svg+xml</dc:format>
                <dc:type xmlns:dc="http://purl.org/dc/elements/1.1/" rdf:resource="http://purl.org/dc/dcmitype/StillImage" xmlns:rdf="http://www.w3.org/1999/02/22-rdf-syntax-ns#"/>
                <dc:title xmlns:dc="http://purl.org/dc/elements/1.1/"/>
            </cc:Work>
        </rdf:RDF>
    </metadata>
    <g transform="translate(-97.810547,-230.29892)" >
        <g >
            <g >
                <g >
                    <g id="breadboard" style="display:inline"  gorn="0.3.0.0.0.0">
                        <path stroke-width="1.5" stroke-opacity="1" id="rect7440" fill="#2d2d2d" stroke="none" fill-opacity="1" d="m 97.810547,238.61743 0,65.55078 53.150393,0 0,-65.55078 -53.150393,0 z m 13.033203,1.67578 a 1.859375,1.859375 0 0 1 1.85938,1.85938 1.859375,1.859375 0 0 1 -1.85938,1.85937 1.859375,1.859375 0 0 1 -1.85937,-1.85937 1.859375,1.859375 0 0 1 1.85937,-1.85938 z m 27.02148,0 a 1.859375,1.859375 0 0 1 1.85938,1.85938 1.859375,1.859375 0 0 1 -1.85938,1.85937 1.859375,1.859375 0 0 1 -1.85937,-1.85937 1.859375,1.859375 0 0 1 1.85937,-1.85938 z m -33.71484,11.60352 a 3.7980182,3.7980182 0 0 1 3.79883,3.79883 3.7980182,3.7980182 0 0 1 -3.79883,3.79883 3.7980182,3.7980182 0 0 1 -3.79687,-3.79883 3.7980182,3.7980182 0 0 1 3.79687,-3.79883 z m 40.4707,0 a 3.7980182,3.7980182 0 0 1 3.79688,3.79883 3.7980182,3.7980182 0 0 1 -3.79688,3.79883 3.7980182,3.7980182 0 0 1 -3.79882,-3.79883 3.7980182,3.7980182 0 0 1 3.79882,-3.79883 z m -28.22265,1.08789 a 1.859375,1.859375 0 0 1 1.85937,1.85938 1.859375,1.859375 0 0 1 -1.85937,1.85937 1.859375,1.859375 0 0 1 -1.85938,-1.85937 1.859375,1.859375 0 0 1 1.85938,-1.85938 z m 15.91015,0 a 1.859375,1.859375 0 0 1 1.85938,1.85938 1.859375,1.859375 0 0 1 -1.85938,1.85937 1.859375,1.859375 0 0 1 -1.85937,-1.85937 1.859375,1.859375 0 0 1 1.85937,-1.85938 z m -22.0957,10.18164 a 3.7980182,3.7980182 0 0 1 3.79688,3.79883 3.7980182,3.7980182 0 0 1 -3.79688,3.79883 3.7980182,3.7980182 0 0 1 -3.79883,-3.79883 3.7980182,3.7980182 0 0 1 3.79883,-3.79883 z m 28.41016,0 a 3.7980182,3.7980182 0 0 1 3.79687,3.79883 3.7980182,3.7980182 0 0 1 -3.79687,3.79883 3.7980182,3.7980182 0 0 1 -3.79883,-3.79883 3.7980182,3.7980182 0 0 1 3.79883,-3.79883 z m -20.71289,1.93945 a 1.859375,1.859375 0 0 1 1.85937,1.85938 1.859375,1.859375 0 0 1 -1.85937,1.85937 1.859375,1.859375 0 0 1 -1.85938,-1.85937 1.859375,1.859375 0 0 1 1.85938,-1.85938 z m 12.95507,0 a 1.859375,1.859375 0 0 1 1.85938,1.85938 1.859375,1.859375 0 0 1 -1.85938,1.85937 1.859375,1.859375 0 0 1 -1.85937,-1.85937 1.859375,1.859375 0 0 1 1.85937,-1.85938 z m -14.71874,11.30079 a 1.859375,1.859375 0 0 1 1.85937,1.85937 1.859375,1.859375 0 0 1 -1.85937,1.85938 1.859375,1.859375 0 0 1 -1.85938,-1.85938 1.859375,1.859375 0 0 1 1.85938,-1.85937 z m 16.41601,0 a 1.859375,1.859375 0 0 1 1.85937,1.85937 1.859375,1.859375 0 0 1 -1.85937,1.85938 1.859375,1.859375 0 0 1 -1.85938,-1.85938 1.859375,1.859375 0 0 1 1.85938,-1.85937 z m -21.9707,9.15429 a 1.859375,1.859375 0 0 1 1.85937,1.85938 1.859375,1.859375 0 0 1 -1.85937,1.85937 1.859375,1.859375 0 0 1 -1.85938,-1.85937 1.859375,1.859375 0 0 1 1.85938,-1.85938 z m 27.65234,0 a 1.859375,1.859375 0 0 1 1.85938,1.85938 1.859375,1.859375 0 0 1 -1.85938,1.85937 1.859375,1.859375 0 0 1 -1.85937,-1.85937 1.859375,1.859375 0 0 1 1.85937,-1.85938 z m -22.70703,9.33203 a 1.90625,1.90625 0 0 1 1.90625,1.90625 1.90625,1.90625 0 0 1 -1.90625,1.90625 1.90625,1.90625 0 0 1 -1.90625,-1.90625 1.90625,1.90625 0 0 1 1.90625,-1.90625 z m 8.57617,0 a 1.90625,1.90625 0 0 1 1.90625,1.90625 1.90625,1.90625 0 0 1 -1.90625,1.90625 1.90625,1.90625 0 0 1 -1.90625,-1.90625 1.90625,1.90625 0 0 1 1.90625,-1.90625 z m 8.76953,0 a 1.90625,1.90625 0 0 1 1.90625,1.90625 1.90625,1.90625 0 0 1 -1.90625,1.90625 1.90625,1.90625 0 0 1 -1.90625,-1.90625 1.90625,1.90625 0 0 1 1.90625,-1.90625 z" style="opacity:1;stroke-miterlimit:4;stroke-dasharray:none;"  gorn="0.3.0.0.0.0.0"/>
                        <circle stroke-width="1.68105149" r="2.6766746" stroke-opacity="1" id="path8375-78-6-8-5" fill="none" cy="266.9686" stroke="#8c8c8c" fill-opacity="0" cx="117.91006" style="display:inline;stroke-miterlimit:4;stroke-dasharray:none;"  gorn="0.3.0.0.0.0.1"/>
                        <circle stroke-width="1.68105149" r="2.6766746" stroke-opacity="1" id="path8375-78-6-8-5-8" fill="none" cy="266.9686" stroke="#8c8c8c" fill-opacity="0" cx="130.86526" style="display:inline;stroke-miterlimit:4;stroke-dasharray:none;"  gorn="0.3.0.0.0.0.2"/>
                        <circle stroke-width="1.68105149" r="2.6766746" stroke-opacity="1" id="path8375-78-6-8" fill="none" cy="287.42419" stroke="#8c8c8c" fill-opacity="0" cx="138.2438" style="display:inline;stroke-miterlimit:4;stroke-dasharray:none;"  gorn="0.3.0.0.0.0.3"/>
                        <circle stroke-width="1.68105149" r="2.6766746" stroke-opacity="1" id="path8375-78-6-8-0" fill="none" cy="287.42419" stroke="#8c8c8c" fill-opacity="0" cx="110.59085" style="display:inline;stroke-miterlimit:4;stroke-dasharray:none;"  gorn="0.3.0.0.0.0.4"/>
                        <circle stroke-width="1.68105149" r="2.6766746" stroke-opacity="1" id="path8375-78-6-8-6" fill="none" cy="278.26965" stroke="#8c8c8c" fill-opacity="0" cx="116.14669" style="display:inline;stroke-miterlimit:4;stroke-dasharray:none;"  gorn="0.3.0.0.0.0.5"/>
                        <circle stroke-width="1.68105149" r="2.6766746" stroke-opacity="1" id="path8375-78-6-8-9" fill="none" cy="278.26965" stroke="#8c8c8c" fill-opacity="0" cx="132.56168" style="display:inline;stroke-miterlimit:4;stroke-dasharray:none;"  gorn="0.3.0.0.0.0.6"/>
                        <circle stroke-width="1.68105149" r="2.6766746" stroke-opacity="1" id="path8375-78-6-8-4" fill="none" cy="254.84677" stroke="#8c8c8c" fill-opacity="0" cx="116.39923" style="display:inline;stroke-miterlimit:4;stroke-dasharray:none;"  gorn="0.3.0.0.0.0.7"/>
                        <circle stroke-width="1.68105149" r="2.6766746" stroke-opacity="1" id="path8375-78-6-8-3" fill="none" cy="254.84677" stroke="#8c8c8c" fill-opacity="0" cx="132.30914" style="display:inline;stroke-miterlimit:4;stroke-dasharray:none;"  gorn="0.3.0.0.0.0.8"/>
                        <circle stroke-width="1.68105149" r="2.6766746" stroke-opacity="1" id="path8375-78-6-8-4-0" fill="none" cy="242.15674" stroke="#8c8c8c" fill-opacity="0" cx="110.84339" style="display:inline;stroke-miterlimit:4;stroke-dasharray:none;"  gorn="0.3.0.0.0.0.9"/>
                        <circle stroke-width="1.68105149" r="2.6766746" stroke-opacity="1" id="path8375-78-6-8-4-3" fill="none" cy="242.15674" stroke="#8c8c8c" fill-opacity="0" cx="137.86497" style="display:inline;stroke-miterlimit:4;stroke-dasharray:none;"  gorn="0.3.0.0.0.0.10"/>
                        <circle stroke-width="1.08865237" r="4.3337693" stroke-opacity="1" id="path8375-78-6-8-4-5" fill="none" cy="255.69908" stroke="#8c8c8c" fill-opacity="0" cx="144.62036" style="display:inline;stroke-miterlimit:4;stroke-dasharray:none;"  gorn="0.3.0.0.0.0.11"/>
                        <circle stroke-width="1.08865237" r="4.3337693" stroke-opacity="1" id="path8375-78-6-8-4-5-4" fill="none" cy="255.69908" stroke="#8c8c8c" fill-opacity="0" cx="104.15113" style="display:inline;stroke-miterlimit:4;stroke-dasharray:none;"  gorn="0.3.0.0.0.0.12"/>
                        <circle stroke-width="1.08865237" r="4.3337693" stroke-opacity="1" id="path8375-78-6-8-4-5-7" fill="none" cy="266.9686" stroke="#8c8c8c" fill-opacity="0" cx="110.21204" style="display:inline;stroke-miterlimit:4;stroke-dasharray:none;"  gorn="0.3.0.0.0.0.13"/>
                        <circle stroke-width="1.08865237" r="4.3337693" stroke-opacity="1" id="path8375-78-6-8-4-5-2" fill="none" cy="266.9686" stroke="#8c8c8c" fill-opacity="0" cx="138.6226" style="display:inline;stroke-miterlimit:4;stroke-dasharray:none;"  gorn="0.3.0.0.0.0.14"/>
                        <g transform="scale(-1,-1)" >
                            <g >
                                <g >
                                    <g >
                                        <text stroke-width="1" stroke-opacity="1" font-size="6.25" id="tspan8327" x="-126.66064" fill="#ffffff" stroke="none" fill-opacity="1" style="font-style:normal;font-variant:normal;font-weight:normal;font-stretch:normal;line-height:125%;font-family:Droid Sans;-inkscape-font-specification:Droid Sans;letter-spacing:0px;word-spacing:0px;stroke-linecap:butt;stroke-linejoin:miter;"  gorn="0.3.0.0.0.0.15.0.0.0.0" y="-247.57935">S1</text>
                                    </g>
                                </g>
                            </g>
                        </g>
                        <text stroke-width="1" stroke-opacity="1" font-size="7.5" x="100.63645" id="tspan8311" fill="#ffffff" stroke="none" fill-opacity="1" style="font-style:normal;font-variant:normal;font-weight:normal;font-stretch:normal;line-height:125%;font-family:Droid Sans;-inkscape-font-specification:Droid Sans;letter-spacing:0px;word-spacing:0px;stroke-linecap:butt;stroke-linejoin:miter;"  y="298.15704" gorn="0.3.0.0.0.0.16">S</text>
                        <text stroke-width="1" stroke-opacity="1" font-size="medium" x="141.2748" id="tspan8315" fill="#ffffff" stroke="none" fill-opacity="1" style="font-style:normal;font-variant:normal;font-weight:normal;font-stretch:normal;line-height:125%;font-family:Droid Sans;-inkscape-font-specification:Droid Sans;letter-spacing:0px;word-spacing:0px;stroke-linecap:butt;stroke-linejoin:miter;"  y="299.54599" gorn="0.3.0.0.0.0.17">-</text>
                        <text stroke-width="1" stroke-opacity="1" font-size="6.25" x="121.28143" id="tspan8323" fill="#ffffff" stroke="none" fill-opacity="1" style="font-style:normal;font-variant:normal;font-weight:normal;font-stretch:normal;line-height:125%;font-family:Droid Sans;-inkscape-font-specification:Droid Sans;letter-spacing:0px;word-spacing:0px;stroke-linecap:butt;stroke-linejoin:miter;"  y="245.7554" gorn="0.3.0.0.0.0.18">A</text>
                        <g transform="matrix(0,1,-1,0,0,0)" >
                            <g >
                                <g >
                                    <g >
                                        <text stroke-width="1" stroke-opacity="1" font-size="6.25" id="tspan8319" x="284.45398" fill="#ffffff" stroke="none" fill-opacity="1" style="font-style:normal;font-variant:normal;font-weight:normal;font-stretch:normal;line-height:125%;font-family:Droid Sans;-inkscape-font-specification:Droid Sans;letter-spacing:0px;word-spacing:0px;stroke-linecap:butt;stroke-linejoin:miter;"  gorn="0.3.0.0.0.0.19.0.0.0.0" y="-129.59288">R1</text>
                                    </g>
                                </g>
                            </g>
                        </g>
                        <circle stroke-width="1" r="2.3883932" stroke-opacity="1" id="path8375-78-6-7" fill="#2e2e2e" cy="296.80222" stroke="#9a916c" fill-opacity="0" cx="115.53799" style="display:inline;"  gorn="0.3.0.0.0.0.20"/>
                        <circle stroke-width="1" r="2.3883932" stroke-opacity="1" id="path8375-3-9-9" fill="#2e2e2e" cy="296.80222" stroke="#9a916c" fill-opacity="0" cx="124.11331" style="display:inline;"  gorn="0.3.0.0.0.0.21"/>
                        <path stroke-width="1.29999995" stroke-opacity="1" id="path8375-3-0-2-4" fill="#2e2e2e" stroke="#9a916c" fill-opacity="0" d="m 135.27098,296.86918 a 2.388393,2.3883932 0 0 1 -2.38839,2.38839 2.388393,2.3883932 0 0 1 -2.38839,-2.38839 2.388393,2.3883932 0 0 1 2.38839,-2.3884 2.388393,2.3883932 0 0 1 2.38839,2.3884 z m -4.97767,-2.67858 5.17858,0 c 0,0 0,0 0,0 l 0,5.22322 c 0,0 0,0 0,0 l -5.17858,0 c 0,0 0,0 0,0 l 0,-5.22322 c 0,0 0,0 0,0 z" style="display:inline;stroke-miterlimit:4;stroke-dasharray:none;"  gorn="0.3.0.0.0.0.22"/>
                        <rect stroke-width="1.125" stroke-opacity="1" rx="3.05567e-016" id="rect8138" x="114.884" fill="none" width="13.384521" stroke="#ffffff" fill-opacity="1" height="6.8185296" style="opacity:1;stroke-miterlimit:4;stroke-dasharray:none;"  gorn="0.3.0.0.0.0.23" y="284.26746"/>
                        <g transform="matrix(0,1.4893572,-1.4893571,0,129.58374,281.65491)" >
                            <g >
                                <g >
                                    <g >
                                        <g id="_x30_603-res" style="display:inline"  gorn="0.3.0.0.0.0.24.0.0.0.0">
                                            <g transform="matrix(-1,2.578893e-6,-2.578893e-6,-1,0,0)" >
                                                <g >
                                                    <g >
                                                        <g >
                                                            <rect id="rect976" x="-5.3850822" width="2.8340001" height="7.9660001" style="fill:#333333"  gorn="0.3.0.0.0.0.24.0.0.0.0.0.0.0.0.0" y="-9.3601303"/>
                                                        </g>
                                                    </g>
                                                </g>
                                            </g>
                                            <g transform="matrix(-1,2.578893e-6,-2.578893e-6,-1,0,0)" >
                                                <g >
                                                    <g >
                                                        <g >
                                                            <rect id="rect978" x="-5.3856859" width="0.045000002" height="7.9660001" enable-background="new    " style="opacity:0.2;fill:#ffffff"  gorn="0.3.0.0.0.0.24.0.0.0.0.1.0.0.0.0" y="-9.3596344"/>
                                                        </g>
                                                    </g>
                                                </g>
                                            </g>
                                            <g transform="matrix(-1,2.578893e-6,-2.578893e-6,-1,0,0)" >
                                                <g >
                                                    <g >
                                                        <g >
                                                            <rect id="rect980" x="-2.5829787" width="0.030999999" height="7.9660001" enable-background="new    " style="opacity:0.2"  gorn="0.3.0.0.0.0.24.0.0.0.0.2.0.0.0.0" y="-9.3588266"/>
                                                        </g>
                                                    </g>
                                                </g>
                                            </g>
                                            <path id="path984" d="m 5.385,8.203 0,0 0,0 0,-0.094 0,0 C 5.135,8.029 4.59,7.974 4.311,7.974 4.02,7.974 2.902,8.022 2.637,8.109 l 0,0 0,0 0,1.224 2.748,0 0,-1.13 z" style="fill:#dcdcdc"  gorn="0.3.0.0.0.0.24.0.0.0.0.3"/>
                                            <path id="path986" d="m 5.282,2.639 0.103,0 0,-1.222 -2.748,0 0,1.223 c 0.264,0.088 1.377,0.193 1.672,0.193 0.347,0 0.672,-0.075 0.973,-0.194 z" style="fill:#dcdcdc"  gorn="0.3.0.0.0.0.24.0.0.0.0.4"/>
                                            <path id="path988" d="m 2.532,9.34 0,-1.224 0.105,-0.007 0,1.224 -0.105,0.007 z" style="fill:#999999"  gorn="0.3.0.0.0.0.24.0.0.0.0.5"/>
                                            <path id="path990" d="m 2.531,1.423 0,1.223 0.106,-0.007 0,-1.222 -0.106,0.006 z" style="fill:#999999"  gorn="0.3.0.0.0.0.24.0.0.0.0.6"/>
                                            <g transform="matrix(-1,2.578893e-6,-2.578893e-6,-1,0,0)" >
                                                <g >
                                                    <g >
                                                        <g >
                                                            <rect id="rect992" x="-5.3854947" width="0.045000002" height="1.223" enable-background="new    " style="opacity:0.5;fill:#ffffff"  gorn="0.3.0.0.0.0.24.0.0.0.0.7.0.0.0.0" y="-2.6405256"/>
                                                        </g>
                                                    </g>
                                                </g>
                                            </g>
                                            <g transform="matrix(-1,2.578893e-6,-2.578893e-6,-1,0,0)" >
                                                <g >
                                                    <g >
                                                        <g >
                                                            <rect id="rect994" x="-5.3858776" width="0.045000002" height="1.225" enable-background="new    " style="opacity:0.5;fill:#ffffff"  gorn="0.3.0.0.0.0.24.0.0.0.0.8.0.0.0.0" y="-9.3358431"/>
                                                        </g>
                                                    </g>
                                                </g>
                                            </g>
                                            <line y1="2.1549997" y2="2.1549997" x1="2.5509999" id="line996" x2="2.5509999" style="fill:none"  gorn="0.3.0.0.0.0.24.0.0.0.0.9"/>
                                            <g transform="matrix(0,-1.0000001,0.99999991,0,0,0)" >
                                                <g >
                                                    <g >
                                                        <g >
                                                            <text stroke-width="1" stroke-opacity="1" font-size="1.67858" x="-6.9559102" id="tspan8642" fill="#ffffff" stroke="none" fill-opacity="1" style="font-style:normal;font-variant:normal;font-weight:normal;font-stretch:normal;line-height:125%;font-family:Droid Sans;-inkscape-font-specification:Droid Sans;letter-spacing:0px;word-spacing:0px;stroke-linecap:butt;stroke-linejoin:miter;"  y="4.5983267" gorn="0.3.0.0.0.0.24.0.0.0.0.10.0.0.0.0">103</text>
                                                        </g>
                                                    </g>
                                                </g>
                                            </g>
                                        </g>
                                    </g>
                                </g>
                            </g>
                        </g>
                        <g transform="translate(97.818282,238.61376)" >
                            <g >
                                <g >
                                    <g >
                                        <g id="Laser"  gorn="0.3.0.0.0.0.25.0.0.0.0">
                                            <path stroke-width="1.5" stroke-opacity="1" id="rect8226-14" fill="#f7e28c" stroke="none" fill-opacity="1" d="m 16.108862,-8.214844 0,19.628907 2.5,0 0,2.740234 -2.5,0 0,12.769531 10.5,0 0,-12.769531 0,-2.740234 0,-0.02539 0,-19.603516 -10.5,0 z" style="display:inline;opacity:1;stroke-miterlimit:4;stroke-dasharray:none;"  gorn="0.3.0.0.0.0.25.0.0.0.0.0"/>
                                            <path stroke-width="1.5" stroke-opacity="1" id="rect8226-2-02" fill="#ffeea2" stroke="none" fill-opacity="1" d="m 26.508862,-8.214688 0,19.603516 0,0.02539 0,2.810547 0,12.699218 10.5,0 0,-12.76953 -2.5,0 0,-2.740235 2.5,0 0,-19.628907 -10.5,0 z" style="display:inline;opacity:1;stroke-miterlimit:4;stroke-dasharray:none;"  gorn="0.3.0.0.0.0.25.0.0.0.0.1"/>
                                            <path stroke-width="0.30000001" stroke-opacity="1" id="path8410" fill="none" stroke="#d9ae0e" d="m 16.102181,11.311728 20.957603,0" style="fill-rule:evenodd;stroke-linecap:butt;stroke-linejoin:miter;stroke-miterlimit:4;stroke-dasharray:none;"  gorn="0.3.0.0.0.0.25.0.0.0.0.2"/>
                                            <path stroke-width="0.30000001" stroke-opacity="1" id="path8410-3" fill="none" stroke="#e4b917" d="m 16.102183,14.265391 20.957602,0" style="fill-rule:evenodd;stroke-linecap:butt;stroke-linejoin:miter;stroke-miterlimit:4;stroke-dasharray:none;"  gorn="0.3.0.0.0.0.25.0.0.0.0.3"/>
                                            <path stroke-width="0.40000001" stroke-opacity="1" id="path8410-2" fill="none" stroke="#ffd123" d="m 16.090607,-8.114844 20.957604,0" style="fill-rule:evenodd;stroke-linecap:butt;stroke-linejoin:miter;stroke-miterlimit:4;stroke-dasharray:none;"  gorn="0.3.0.0.0.0.25.0.0.0.0.4"/>
                                            <path stroke-width="0.40000001" stroke-opacity="1" id="path8410-8" fill="none" stroke="#ffd123" d="m 16.090609,26.823828 20.957602,0" style="fill-rule:evenodd;stroke-linecap:butt;stroke-linejoin:miter;stroke-miterlimit:4;stroke-dasharray:none;"  gorn="0.3.0.0.0.0.25.0.0.0.0.5"/>
                                            <rect stroke-width="1.5" stroke-opacity="1" x="27.050125" id="rect8307-0" fill="#f8ffde" width="2.7558928" stroke="none" fill-opacity="1" height="22.623957" style="display:inline;opacity:1;stroke-miterlimit:4;stroke-dasharray:none;"  y="17.646111" gorn="0.3.0.0.0.0.25.0.0.0.0.6"/>
                                            <circle stroke-width="0.40000001" r="1.8491117" stroke-opacity="1" id="path8471-9" fill="#dcdcdc" cy="28.353367" stroke="none" fill-opacity="1" cx="33.054718" style="display:inline;opacity:1;stroke-miterlimit:4;stroke-dasharray:none;"  gorn="0.3.0.0.0.0.25.0.0.0.0.7"/>
                                            <circle stroke-width="0.40000001" r="1.8491117" stroke-opacity="1" id="path8471" fill="#dcdcdc" cy="39.654423" stroke="none" fill-opacity="1" cx="18.336143" style="opacity:1;stroke-miterlimit:4;stroke-dasharray:none;"  gorn="0.3.0.0.0.0.25.0.0.0.0.8"/>
                                            <circle stroke-width="0.40000001" r="1.8491117" stroke-opacity="1" id="path8471-1" fill="#dcdcdc" cy="39.654423" stroke="none" fill-opacity="1" cx="34.751129" style="display:inline;opacity:1;stroke-miterlimit:4;stroke-dasharray:none;"  gorn="0.3.0.0.0.0.25.0.0.0.0.9"/>
                                            <path stroke-width="0.30000001" stroke-opacity="1" id="path7356" fill="none" stroke="#ffd123" d="m 36.857941,-8.0854701 0,19.1802711" style="fill-rule:evenodd;stroke-linecap:butt;stroke-linejoin:miter;stroke-miterlimit:4;stroke-dasharray:none;"  gorn="0.3.0.0.0.0.25.0.0.0.0.10"/>
                                            <path stroke-width="0.30000001" stroke-opacity="1" id="path7356-8" fill="none" stroke="#d9ae0e" d="m 16.090607,-7.914844 0,19.180272" style="display:inline;fill-rule:evenodd;stroke-linecap:butt;stroke-linejoin:miter;stroke-miterlimit:4;stroke-dasharray:none;"  gorn="0.3.0.0.0.0.25.0.0.0.0.11"/>
                                            <path stroke-width="0.2415095" stroke-opacity="1" id="path7356-8-7" fill="none" stroke="#d9ae0e" d="m 16.222937,14.11539 0,12.430272" style="display:inline;fill-rule:evenodd;stroke-linecap:butt;stroke-linejoin:miter;stroke-miterlimit:4;stroke-dasharray:none;"  gorn="0.3.0.0.0.0.25.0.0.0.0.12"/>
                                            <path stroke-width="0.24272077" stroke-opacity="1" id="path7356-9" fill="none" stroke="#ffd123" d="m 36.887502,14.368713 0,12.555271" style="display:inline;fill-rule:evenodd;stroke-linecap:butt;stroke-linejoin:miter;stroke-miterlimit:4;stroke-dasharray:none;"  gorn="0.3.0.0.0.0.25.0.0.0.0.13"/>
                                        </g>
                                    </g>
                                </g>
                            </g>
                        </g>
                        <g transform="translate(0.7337596,-0.21587)" >
                            <g >
                                <g >
                                    <g >
                                        <g id="pins"  gorn="0.3.0.0.0.0.26.0.0.0.0">
                                            <rect stroke-width="1" ry="0" stroke-opacity="1" rx="9.6986098e-016" x="110.56068" id="rect8343-9" fill="#2e2e2e" width="17.499998" stroke="#ffffff" fill-opacity="0" height="8.7946367" style="display:inline;"  y="292.78632" gorn="0.3.0.0.0.0.26.0.0.0.0.0"/>
                                            <rect stroke-width="1.00458562" stroke-opacity="1" rx="9.6934482e-016" x="127.9684" id="rect8345-8" fill="#2e2e2e" width="8.6114864" stroke="#ffffff" fill-opacity="0" height="8.7900572" style="display:inline;"  y="292.7886" gorn="0.3.0.0.0.0.26.0.0.0.0.1"/>
                                            <circle stroke-width="1" r="2.3883932" stroke-opacity="1" id="path8375-78-6" fill="none" cy="297.01807" stroke="#8c8c8c" fill-opacity="0" cx="114.90543" style="display:inline;"  gorn="0.3.0.0.0.0.26.0.0.0.0.2"/>
                                            <circle stroke-width="1" r="2.3883932" stroke-opacity="1" id="path8375-3-9" fill="#2e2e2e" cy="297.01807" stroke="#8c8c8c" fill-opacity="0" cx="123.48074" style="display:inline;"  gorn="0.3.0.0.0.0.26.0.0.0.0.3"/>
                                            <path stroke-width="1.29999995" stroke-opacity="1" id="path8375-3-0-2" fill="#2e2e2e" stroke="#8c8c8c" fill-opacity="0" d="m 134.63842,297.08505 a 2.388393,2.3883932 0 0 1 -2.38839,2.38839 2.388393,2.3883932 0 0 1 -2.38839,-2.38839 2.388393,2.3883932 0 0 1 2.38839,-2.3884 2.388393,2.3883932 0 0 1 2.38839,2.3884 z m -4.97767,-2.67858 5.17857,0 c 0,0 0,0 0,0 l 0,5.22322 c 0,0 0,0 0,0 l -5.17857,0 c 0,0 0,0 0,0 l 0,-5.22322 c 0,0 0,0 0,0 z" style="display:inline;stroke-miterlimit:4;stroke-dasharray:none;"  gorn="0.3.0.0.0.0.26.0.0.0.0.4"/>
                                            <g transform="matrix(1.2440783,0,0,1.2440783,-94.546522,286.88078)" >
                                                <g >
                                                    <g >
                                                        <g >
                                                            <polygon id="polygon9525" points="166.327,4.526 166.327,4.526 164.766,6.061 164.766,10.056 166.327,11.588 170.389,11.588 171.949,10.056 171.949,6.061 170.389,4.526 " style="display:inline;fill:#404040"  gorn="0.3.0.0.0.0.26.0.0.0.0.5.0.0.0.0"/>
                                                        </g>
                                                    </g>
                                                </g>
                                            </g>
                                            <g transform="matrix(1.2440783,0,0,1.2440783,-85.610632,286.88078)" >
                                                <g >
                                                    <g >
                                                        <g >
                                                            <polygon id="polygon9525-7" points="171.949,10.056 171.949,6.061 170.389,4.526 166.327,4.526 166.327,4.526 164.766,6.061 164.766,10.056 166.327,11.588 170.389,11.588 " style="display:inline;fill:#404040"  gorn="0.3.0.0.0.0.26.0.0.0.0.6.0.0.0.0"/>
                                                        </g>
                                                    </g>
                                                </g>
                                            </g>
                                            <g transform="matrix(1.2440783,0,0,1.2440783,-76.674732,286.88078)" >
                                                <g >
                                                    <g >
                                                        <g >
                                                            <polygon id="polygon9525-0" points="171.949,10.056 171.949,6.061 170.389,4.526 166.327,4.526 166.327,4.526 164.766,6.061 164.766,10.056 166.327,11.588 170.389,11.588 " style="display:inline;fill:#404040"  gorn="0.3.0.0.0.0.26.0.0.0.0.7.0.0.0.0"/>
                                                        </g>
                                                    </g>
                                                </g>
                                            </g>
                                        </g>
                                    </g>
                                </g>
                            </g>
                        </g>
                        <rect stroke-width="1.19069779" stroke-opacity="1" rx="8.7117614e-016" x="114.78178" fill="#8c8c8c" width="1.5093021" stroke="#8c8c8c" fill-opacity="1" height="26.979361" style="display:inline;opacity:1;stroke-miterlimit:4;stroke-dasharray:none;"  y="296.63498"/>
                        <rect stroke-width="1.19069779" stroke-opacity="1" rx="8.7117614e-016" x="123.82283" fill="#8c8c8c" width="1.5093021" stroke="#8c8c8c" fill-opacity="1" height="26.979361" style="display:inline;opacity:1;stroke-miterlimit:4;stroke-dasharray:none;"  y="296.63498"/>
                        <rect stroke-width="1.19069779" stroke-opacity="1" rx="8.7117614e-016" x="132.82283" fill="#8c8c8c" width="1.5093021" stroke="#8c8c8c" fill-opacity="1" height="26.979361" style="display:inline;opacity:1;stroke-miterlimit:4;stroke-dasharray:none;"  y="296.63498"/>
                        <g transform="translate(-16.565492,59.412337)" >
                            <g >
                                <g >
                                    <g >
                                        <g id="connector0pin" style="display:inline"  gorn="0.3.0.0.0.0.30.0.0.0.0">
                                            <rect stroke-width="1.07946324" stroke-opacity="1" rx="9.9289509e-016" id="rect8209" x="131.2872" fill="#1a1a1a" width="1.6205368" stroke="#c1c1c1" fill-opacity="1" height="0.16069429" style="opacity:1;stroke-miterlimit:4;stroke-dasharray:none;"  gorn="0.3.0.0.0.0.30.0.0.0.0.0" y="237.19577"/>
                                            <rect stroke-width="0.80857694" stroke-opacity="1" rx="1.1588659e-015" id="rect8209-6" x="131.1562" fill="#1a1a1a" width="1.8914231" stroke="#c1c1c1" fill-opacity="1" height="0.077249847" style="opacity:1;stroke-miterlimit:4;stroke-dasharray:none;"  gorn="0.3.0.0.0.0.30.0.0.0.0.1" y="264.31583"/>
                                        </g>
                                        <rect stroke-width="0" id="connector0terminal" fill="none" x="132.097" width="0.00540889" stroke="none" height="0.0562827"  y="264.769" gorn="0.3.0.0.0.0.30.0.0.0.1"/>
                                    </g>
                                </g>
                            </g>
                        </g>
                        <g transform="translate(-16.282232,59.588727)" >
                            <g >
                                <g >
                                    <g >
                                        <g id="connector1pin" style="display:inline"  gorn="0.3.0.0.0.0.31.0.0.0.0">
                                            <rect stroke-width="1.07946324" stroke-opacity="1" rx="9.9289509e-016" id="rect8209-0-6" x="140.045" fill="#1a1a1a" width="1.6205368" stroke="#c1c1c1" fill-opacity="1" height="0.16069429" style="opacity:1;stroke-miterlimit:4;stroke-dasharray:none;"  gorn="0.3.0.0.0.0.31.0.0.0.0.0" y="237.01938"/>
                                            <rect stroke-width="0.80857694" stroke-opacity="1" rx="1.1588659e-015" id="rect8209-6-9-1" x="139.914" fill="#1a1a1a" width="1.8914231" stroke="#c1c1c1" fill-opacity="1" height="0.077249847" style="opacity:1;stroke-miterlimit:4;stroke-dasharray:none;"  gorn="0.3.0.0.0.0.31.0.0.0.0.1" y="264.13943"/>
                                        </g>
                                        <rect stroke-width="0" id="connector1terminal" fill="none" x="140.855" width="0.00540889" stroke="none" height="0.0562826"  y="264.593" gorn="0.3.0.0.0.0.31.0.0.0.1"/>
                                    </g>
                                </g>
                            </g>
                        </g>
                        <g transform="translate(-7.2822314,59.588727)" >
                            <g >
                                <g >
                                    <g >
                                        <g id="connector2pin" style="display:inline"  gorn="0.3.0.0.0.0.32.0.0.0.0">
                                            <rect stroke-width="1.07946324" stroke-opacity="1" rx="9.9289509e-016" id="rect8209-0-6-7" x="140.045" fill="#1a1a1a" width="1.6205368" stroke="#c1c1c1" fill-opacity="1" height="0.16069429" style="opacity:1;stroke-miterlimit:4;stroke-dasharray:none;"  gorn="0.3.0.0.0.0.32.0.0.0.0.0" y="237.01938"/>
                                            <rect stroke-width="0.80857694" stroke-opacity="1" rx="1.1588659e-015" id="rect8209-6-9-1-7" x="139.914" fill="#1a1a1a" width="1.8914231" stroke="#c1c1c1" fill-opacity="1" height="0.077249847" style="opacity:1;stroke-miterlimit:4;stroke-dasharray:none;"  gorn="0.3.0.0.0.0.32.0.0.0.0.1" y="264.13943"/>
                                        </g>
                                        <rect stroke-width="0" id="connector2terminal" fill="none" x="140.855" width="0.00540889" stroke="none" height="0.0562826"  y="264.593" gorn="0.3.0.0.0.0.32.0.0.0.1"/>
                                    </g>
                                </g>
                            </g>
                        </g>
                    </g>
                </g>
            </g>
        </g>
    </g>
</svg>
