<?xml version="1.0" encoding="UTF-8" standalone="no"?>
<!DOCTYPE svg PUBLIC "-//W3C//DTD SVG 20010904//EN" "http://www.w3.org/TR/2001/REC-SVG-20010904/DTD/svg10.dtd">
<svg xmlns="http://www.w3.org/2000/svg" width="10.5848mm" height="22.4927mm" viewBox="0 0 40 85">
  <path id="Selection" d="M 1.00,9.00            C 1.00,9.00 1.00,44.00 1.00,44.00              1.00,44.00 20.00,44.00 20.00,44.00              20.00,44.00 20.00,9.00 20.00,9.00              20.00,9.00 1.00,9.00 1.00,9.00 Z            M 5.00,46.00            C 5.00,46.00 5.00,50.00 5.00,50.00              5.00,50.00 20.00,50.00 20.00,50.00              20.00,50.00 20.00,46.00 20.00,46.00              20.00,46.00 5.00,46.00 5.00,46.00 Z            M 1.00,51.00            C 1.00,51.00 1.00,74.00 1.00,74.00              1.00,74.00 20.00,74.00 20.00,74.00              20.00,74.00 20.00,51.00 20.00,51.00              20.00,51.00 1.00,51.00 1.00,51.00 Z" fill="#F7E28C" stroke="none" stroke-width="0"/>
</svg>