<?xml version="1.0" encoding="UTF-8" standalone="no"?>
<!DOCTYPE svg PUBLIC "-//W3C//DTD SVG 20010904//EN" "http://www.w3.org/TR/2001/REC-SVG-20010904/DTD/svg10.dtd">
<svg xmlns="http://www.w3.org/2000/svg" width="10.5848mm" height="22.4927mm" viewBox="0 0 40 85">
  <path id="Selection" d="M 0.00,50.00            C 0.00,50.00 0.00,75.00 0.00,75.00              0.00,75.00 40.00,75.00 40.00,75.00              40.00,75.00 40.00,50.00 40.00,50.00              40.00,50.00 0.00,50.00 0.00,50.00 Z            M 39.00,51.00            C 39.00,51.00 39.00,74.00 39.00,74.00              39.00,74.00 1.00,74.00 1.00,74.00              1.00,74.00 1.00,51.00 1.00,51.00              1.00,51.00 39.00,51.00 39.00,51.00 Z" fill="#FED439" stroke="none" stroke-width="0"/>
  <path id="Selection #1" d="M 5.00,44.00            C 5.00,44.00 5.00,46.00 5.00,46.00              5.00,46.00 35.00,46.00 35.00,46.00              35.00,46.00 35.00,44.00 35.00,44.00              35.00,44.00 5.00,44.00 5.00,44.00 Z            M 50.00,24.91" fill="#FED439" stroke="none" stroke-width="0"/>
  <path id="Selection #1" d="M 27.00,8.00            C 27.00,8.00 27.00,45.00 27.00,45.00              27.00,45.00 40.00,45.00 40.00,45.00              40.00,45.00 40.00,8.00 40.00,8.00              40.00,8.00 27.00,8.00 27.00,8.00 Z" fill="#FED439" stroke="none" stroke-width="0"/>
  <path id="Selection" d="M 0.00,8.00            C 0.00,8.00 0.00,45.00 0.00,45.00              0.00,45.00 13.00,45.00 13.00,45.00              13.00,45.00 13.00,8.00 13.00,8.00              13.00,8.00 0.00,8.00 0.00,8.00 Z" fill="#FED439" stroke="none" stroke-width="0"/>
  
  <path id="Selection" d="M 1.00,9.00            C 1.00,9.00 1.00,44.00 1.00,44.00              1.00,44.00 20.00,44.00 20.00,44.00              20.00,44.00 20.00,9.00 20.00,9.00              20.00,9.00 1.00,9.00 1.00,9.00 Z            M 5.00,46.00            C 5.00,46.00 5.00,50.00 5.00,50.00              5.00,50.00 20.00,50.00 20.00,50.00              20.00,50.00 20.00,46.00 20.00,46.00              20.00,46.00 5.00,46.00 5.00,46.00 Z            M 1.00,51.00            C 1.00,51.00 1.00,74.00 1.00,74.00              1.00,74.00 20.00,74.00 20.00,74.00              20.00,74.00 20.00,51.00 20.00,51.00              20.00,51.00 1.00,51.00 1.00,51.00 Z" fill="#F7E28C" stroke="none" stroke-width="0"/>
  <path id="Selection #1" d="M 20.00,9.00            C 20.00,9.00 20.00,44.00 20.00,44.00              20.00,44.00 39.00,44.00 39.00,44.00              39.00,44.00 39.00,9.00 39.00,9.00              39.00,9.00 20.00,9.00 20.00,9.00 Z            M 20.00,46.00            C 20.00,46.00 20.00,50.00 20.00,50.00              20.00,50.00 35.00,50.00 35.00,50.00              35.00,50.00 35.00,46.00 35.00,46.00              35.00,46.00 20.00,46.00 20.00,46.00 Z            M 20.00,51.00            C 20.00,51.00 20.00,74.00 20.00,74.00              20.00,74.00 39.00,74.00 39.00,74.00              39.00,74.00 39.00,51.00 39.00,51.00              39.00,51.00 20.00,51.00 20.00,51.00 Z" fill="#FFEEA2" stroke="none" stroke-width="0"/>

  <path id="Selection #5" d="M 14.00,75.00            C 14.00,75.00 14.00,85.00 14.00,85.00              14.00,85.00 18.00,85.00 18.00,85.00              18.00,85.00 18.00,75.00 18.00,75.00              18.00,75.00 14.00,75.00 14.00,75.00 Z" stroke-width="0" stroke="none" fill="#000000"/>
  <path id="Selection #4" d="M 22.00,75.00            C 22.00,75.00 22.00,85.00 22.00,85.00              22.00,85.00 26.00,85.00 26.00,85.00              26.00,85.00 26.00,75.00 26.00,75.00              26.00,75.00 22.00,75.00 22.00,75.00 Z" stroke-width="0" stroke="none" fill="#FF0000"/>
  <path id="Selection #3" d="M 14.00,0.00            C 14.00,0.00 14.00,9.00 14.00,9.00              14.00,9.00 26.00,9.00 26.00,9.00              26.00,9.00 26.00,0.00 26.00,0.00              26.00,0.00 14.00,0.00 14.00,0.00 Z" stroke-width="0" stroke="none" fill="#FF0000"/>

</svg>